<?xml version="1.0" encoding="UTF-8"?>
<!DOCTYPE svg PUBLIC "-//W3C//DTD SVG 1.1//EN" "http://www.w3.org/Graphics/SVG/1.1/DTD/svg11.dtd">
<!-- Creator: CorelDRAW X8 -->
<svg xmlns="http://www.w3.org/2000/svg" xml:space="preserve" width="72.5591mm" height="23.5172mm" version="1.1" style="shape-rendering:geometricPrecision; text-rendering:geometricPrecision; image-rendering:optimizeQuality; fill-rule:evenodd; clip-rule:evenodd"
viewBox="0 0 7255 2351"
 xmlns:xlink="http://www.w3.org/1999/xlink">
 <defs>
  <style type="text/css">
   <![CDATA[
    .fil1 {fill:#FFF212}
    .fil3 {fill:#EC268F}
    .fil7 {fill:#ED3237}
    .fil0 {fill:#282829}
    .fil2 {fill:#00AFEF}
    .fil6 {fill:#00A859}
    .fil4 {fill:#2D5498}
    .fil5 {fill:black}
   ]]>
  </style>
 </defs>
 <g id="Capa_x0020_1">
  <metadata id="CorelCorpID_0Corel-Layer"/>
  <g id="_1680505766848">
   <path class="fil0" d="M1867 923l-1 4c72,32 145,102 190,156 16,19 21,24 37,48 156,230 157,486 26,718 -127,225 -412,368 -684,328 -61,-9 -223,-53 -248,-88l-5 -2c-28,45 -191,83 -254,92 -193,26 -380,-43 -521,-154 -53,-41 -117,-119 -155,-182 -91,-152 -122,-362 -55,-547 31,-84 74,-163 123,-215 117,-124 148,-120 183,-157 4,-49 -6,-109 2,-169 44,-326 323,-589 681,-588 102,0 215,21 296,65 68,36 161,93 210,152 119,141 194,283 175,539zm-744 -923l115 0c34,3 70,8 111,15 31,5 51,10 78,19 29,10 55,17 79,26 120,45 269,154 345,257l82 121c62,118 100,239 100,397 53,35 145,123 183,179 17,25 30,45 47,70 29,45 58,108 74,165 10,34 14,59 24,93 39,134 12,351 -38,477 -11,25 -19,38 -29,63 -30,71 -103,163 -160,221l-111 92c-23,15 -35,25 -59,39 -20,13 -39,21 -60,32 -60,30 -212,80 -301,80 -159,0 -146,10 -293,-26l-125 -36c-22,0 -190,83 -421,65 -175,-14 -317,-84 -449,-183 -84,-63 -64,-54 -129,-123 -52,-55 -109,-162 -138,-236 -17,-42 -48,-151 -48,-204 0,-180 -9,-283 78,-457 14,-28 25,-47 39,-71l72 -100c29,-32 113,-124 149,-134 0,-34 -1,-70 0,-104 2,-71 57,-235 99,-306 135,-223 328,-370 584,-417 38,-7 71,-11 102,-14z"/>
   <path class="fil1" d="M503 924l8 0c19,-13 117,-51 146,-58 128,-32 246,-39 376,-1 64,18 99,41 153,62 74,-19 131,-86 337,-87 73,0 119,10 186,25 29,6 52,16 79,25 27,10 55,27 79,33 19,-256 -56,-398 -175,-539 -49,-59 -142,-116 -210,-152 -81,-44 -194,-65 -296,-65 -358,-1 -637,262 -681,588 -8,60 2,120 -2,169z"/>
   <path class="fil2" d="M1524 1423c5,199 0,262 -84,416 -39,73 -91,122 -147,172 -24,21 -61,64 -106,78 25,35 187,79 248,88 272,40 557,-103 684,-328 131,-232 130,-488 -26,-718 -16,-24 -21,-29 -37,-48 -45,-54 -118,-124 -190,-156 -33,128 -51,210 -122,301 -60,78 -126,146 -220,195z"/>
   <path class="fil3" d="M1182 2087c-100,-48 -198,-156 -252,-253 -49,-87 -111,-285 -77,-408l1 -6c-70,-14 -189,-146 -225,-194 -49,-66 -109,-199 -118,-302l-8 0c-35,37 -66,33 -183,157 -49,52 -92,131 -123,215 -67,185 -36,395 55,547 38,63 102,141 155,182 141,111 328,180 521,154 63,-9 226,-47 254,-92z"/>
   <path class="fil4" d="M1182 2087l5 2c45,-14 82,-57 106,-78 56,-50 108,-99 147,-172 84,-154 89,-217 84,-416 -131,85 -362,113 -523,63 -104,-33 -81,-34 -148,-60 -34,123 28,321 77,408 54,97 152,205 252,253z"/>
   <path class="fil5" d="M854 1420l-1 6c67,26 44,27 148,60 161,50 392,22 523,-63 -9,-18 -14,-59 -20,-83 -22,-82 -55,-146 -101,-212 -54,-77 -129,-148 -217,-196 -73,31 -174,137 -217,196 -46,62 -108,195 -115,292z"/>
   <path class="fil6" d="M1186 927l0 5c88,48 163,119 217,196 46,66 79,130 101,212 6,24 11,65 20,83 94,-49 160,-117 220,-195 71,-91 89,-173 122,-301l1 -4c-24,-6 -52,-23 -79,-33 -27,-9 -50,-19 -79,-25 -67,-15 -113,-25 -186,-25 -206,1 -263,68 -337,87z"/>
   <path class="fil7" d="M511 924c9,103 69,236 118,302 36,48 155,180 225,194 7,-97 69,-230 115,-292 43,-59 144,-165 217,-196l0 -5c-54,-21 -89,-44 -153,-62 -130,-38 -248,-31 -376,1 -29,7 -127,45 -146,58z"/>
   <path class="fil0" d="M6642 1440l-185 0c0,-184 131,-215 274,-215 172,0 113,215 -89,215zm-660 452c0,275 278,423 519,423 107,0 231,-13 322,-34 27,-6 48,-11 71,-18 24,-7 41,-15 66,-23l127 -51c-1,-34 -70,-301 -82,-326 -46,11 -83,31 -127,43 -104,28 -333,51 -420,-23 -33,-28 -45,-75 -46,-131 56,0 82,8 134,7 110,-1 275,-14 370,-52 345,-137 417,-529 261,-720 -162,-201 -768,-250 -1026,162 -57,91 -99,211 -123,330 -24,122 -46,272 -46,413z"/>
   <path class="fil0" d="M5144 2182c0,44 116,90 157,103 161,52 457,35 592,-37 0,-125 7,-233 7,-363 -124,29 -175,45 -304,15l70 -486c9,-48 27,-119 27,-167 289,0 245,22 261,-79 11,-65 50,-258 50,-306l-230 0 57 -255c24,-116 -7,-57 -211,-80l-194 -14c-34,71 -158,720 -172,800 -23,137 -46,278 -66,423 -10,70 -19,150 -27,218 -9,73 -17,152 -17,228z"/>
   <path class="fil0" d="M3958 587c49,0 77,8 133,8l-77 405c-56,278 -190,1072 -190,1293l423 0c1,-35 11,-99 14,-134 49,-512 204,-1287 305,-1793 9,-46 22,-80 22,-135l-571 0c-13,56 -21,115 -33,175 -6,33 -9,56 -15,89 -7,39 -11,48 -11,92z"/>
   <path class="fil0" d="M4462 2293l423 0c13,-56 21,-114 32,-175 34,-178 59,-360 94,-536l126 -720 -408 0c-33,0 -33,90 -47,161l-95 542c-12,74 -125,678 -125,728z"/>
   <path class="fil0" d="M4773 484l0 44c0,82 82,163 163,163 318,0 392,-437 82,-437 -113,0 -245,121 -245,230z"/>
   <path class="fil0" d="M3211 1440l-185 0c0,-184 131,-215 274,-215 172,0 114,215 -89,215zm-660 452c0,275 278,423 519,423 108,0 231,-13 322,-34 27,-6 48,-11 71,-18 24,-7 41,-15 66,-23l127 -51c-1,-34 -69,-301 -81,-326 -46,11 -84,31 -128,43 -104,28 -332,51 -419,-23 -33,-28 -45,-75 -47,-131 57,0 83,8 134,7 111,-1 275,-14 371,-52 344,-137 416,-529 260,-720 -162,-201 -768,-250 -1026,162 -56,91 -99,211 -122,330 -25,122 -47,272 -47,413z"/>
  </g>
 </g>
</svg>
