<?xml version="1.0" encoding="UTF-8"?>
<!DOCTYPE svg PUBLIC "-//W3C//DTD SVG 1.1//EN" "http://www.w3.org/Graphics/SVG/1.1/DTD/svg11.dtd">
<!-- Creator: CorelDRAW X8 -->
<svg xmlns="http://www.w3.org/2000/svg" xml:space="preserve" width="72.5591mm" height="23.5172mm" version="1.1" style="shape-rendering:geometricPrecision; text-rendering:geometricPrecision; image-rendering:optimizeQuality; fill-rule:evenodd; clip-rule:evenodd"
viewBox="0 0 7112 2305"
 xmlns:xlink="http://www.w3.org/1999/xlink">
 <defs>
  <style type="text/css">
   <![CDATA[
    .fil8 {fill:#FEFEFE}
    .fil1 {fill:#FFF212}
    .fil3 {fill:#EC268F}
    .fil7 {fill:#ED3237}
    .fil0 {fill:#282829}
    .fil2 {fill:#00AFEF}
    .fil6 {fill:#00A859}
    .fil4 {fill:#2D5498}
    .fil5 {fill:black}
   ]]>
  </style>
 </defs>
 <g id="Capa_x0020_1">
  <metadata id="CorelCorpID_0Corel-Layer"/>
  <path class="fil0" d="M1830 904l-1 4c71,32 142,101 186,153 16,19 21,24 37,48 152,225 154,476 25,703 -124,221 -404,361 -671,322 -60,-9 -218,-52 -243,-86l-4 -2c-28,44 -188,81 -250,90 -188,25 -372,-42 -510,-151 -52,-40 -115,-117 -152,-179 -90,-148 -120,-354 -54,-535 30,-83 73,-160 121,-211 114,-122 145,-118 179,-154 4,-49 -6,-107 2,-166 44,-319 317,-577 667,-577 100,0 211,21 291,64 66,36 157,91 206,149 117,139 190,278 171,528zm-729 -904l112 0c34,3 69,8 109,15 31,5 50,10 77,19 28,9 53,16 77,25 118,44 264,151 339,251l80 119c61,116 98,235 98,390 51,34 142,121 179,175 17,25 29,44 46,69 29,44 58,105 73,161 10,34 14,59 23,92 38,131 12,344 -37,467 -10,24 -19,37 -29,62 -29,70 -100,160 -156,216l-109 90c-23,15 -34,25 -58,39 -20,12 -38,21 -59,31 -58,30 -208,78 -295,78 -156,0 -143,11 -287,-25l-122 -35c-22,0 -187,81 -413,63 -172,-13 -310,-82 -440,-179 -83,-61 -63,-52 -127,-120 -50,-54 -107,-159 -135,-231 -17,-42 -47,-148 -47,-201 0,-176 -9,-277 76,-447 14,-28 25,-46 39,-71l70 -97c29,-32 111,-122 146,-131 0,-34 -1,-69 0,-103 2,-69 56,-230 98,-299 132,-219 321,-363 572,-409 37,-7 69,-12 100,-14z"/>
  <path class="fil1" d="M493 906l8 0c19,-13 114,-50 143,-57 126,-31 241,-38 369,-1 62,18 96,41 150,61 72,-19 128,-85 330,-86 71,0 116,10 182,24 29,7 51,16 77,26 27,9 55,26 78,31 19,-250 -54,-389 -171,-528 -49,-58 -140,-113 -206,-149 -80,-43 -191,-64 -291,-64 -350,0 -623,258 -667,577 -8,59 2,117 -2,166z"/>
  <path class="fil2" d="M1494 1395c5,195 0,257 -82,408 -39,71 -89,120 -145,169 -23,20 -59,62 -104,76 25,34 183,77 243,86 267,39 547,-101 671,-322 129,-227 127,-478 -25,-703 -16,-24 -21,-29 -37,-48 -44,-52 -115,-121 -186,-153 -32,127 -50,207 -119,296 -60,76 -124,143 -216,191z"/>
  <path class="fil3" d="M1159 2046c-98,-47 -195,-153 -248,-248 -47,-85 -108,-280 -75,-400l1 -6c-68,-14 -185,-143 -220,-191 -48,-64 -108,-195 -116,-295l-8 0c-34,36 -65,32 -179,154 -48,51 -91,128 -121,211 -66,181 -36,387 54,535 37,62 100,139 152,179 138,109 322,176 510,151 62,-9 222,-46 250,-90z"/>
  <path class="fil4" d="M1159 2046l4 2c45,-14 81,-56 104,-76 56,-49 106,-98 145,-169 82,-151 87,-213 82,-408 -128,83 -355,111 -512,61 -103,-32 -80,-32 -146,-58 -33,120 28,315 75,400 53,95 150,201 248,248z"/>
  <path class="fil5" d="M837 1392l-1 6c66,26 43,26 146,58 157,50 384,22 512,-61 -9,-17 -14,-58 -20,-82 -21,-80 -53,-142 -99,-208 -53,-75 -126,-145 -212,-191 -72,30 -171,134 -213,192 -45,61 -106,190 -113,286z"/>
  <path class="fil6" d="M1163 909l0 5c86,46 159,116 212,191 46,66 78,128 99,208 6,24 11,65 20,82 92,-48 156,-115 216,-191 69,-89 87,-169 119,-296l1 -4c-23,-5 -51,-22 -78,-31 -26,-10 -48,-19 -77,-26 -66,-14 -111,-24 -182,-24 -202,1 -258,67 -330,86z"/>
  <path class="fil7" d="M501 906c8,100 68,231 116,295 35,48 152,177 220,191 7,-96 68,-225 113,-286 42,-58 141,-162 213,-192l0 -5c-54,-20 -88,-43 -150,-61 -128,-37 -243,-30 -369,1 -29,7 -124,44 -143,57z"/>
  <path class="fil8" d="M6511 1412l-182 0c0,-181 129,-211 269,-211 168,0 111,211 -87,211zm-647 443c0,269 272,414 509,414 105,0 226,-13 315,-33 26,-6 47,-11 70,-17 23,-7 40,-15 64,-23l125 -50c-1,-33 -68,-295 -80,-320 -45,11 -82,31 -125,42 -102,28 -326,50 -411,-22 -33,-28 -44,-74 -46,-129 55,0 81,9 131,8 109,-2 270,-14 364,-52 337,-134 408,-518 255,-706 -159,-196 -753,-245 -1006,160 -55,89 -97,207 -120,323 -23,119 -45,266 -45,405z"/>
  <path class="fil8" d="M5042 2139c0,43 115,88 154,101 158,51 448,34 581,-36 0,-123 7,-228 7,-356 -122,28 -172,44 -298,14l68 -476c9,-47 26,-117 26,-163 284,0 241,21 257,-78 10,-64 49,-253 49,-300l-226 0 56 -250c24,-114 -7,-56 -207,-78l-190 -14c-34,69 -156,706 -169,784 -22,135 -44,273 -64,415 -10,68 -19,147 -27,213 -9,72 -17,149 -17,224z"/>
  <path class="fil8" d="M3879 576c49,0 76,7 131,7l-75 397c-55,273 -186,1051 -186,1268l414 0c1,-35 10,-97 14,-132 48,-501 200,-1261 299,-1758 9,-44 21,-78 21,-131l-559 0c-13,55 -21,112 -33,171 -6,33 -8,55 -14,87 -7,39 -12,47 -12,91z"/>
  <path class="fil8" d="M4374 2248l414 0c13,-55 21,-112 32,-172 33,-174 57,-352 92,-526l123 -705 -400 0c-31,0 -32,88 -45,158l-94 531c-12,72 -122,664 -122,714z"/>
  <path class="fil8" d="M4679 474l0 44c0,80 80,160 160,160 311,0 384,-429 80,-429 -111,0 -240,118 -240,225z"/>
  <path class="fil8" d="M3148 1412l-182 0c0,-181 129,-211 269,-211 168,0 111,211 -87,211zm-647 443c0,269 272,414 509,414 105,0 226,-13 315,-33 27,-6 47,-11 70,-17 23,-7 40,-15 65,-23l124 -50c-1,-33 -68,-295 -80,-320 -45,11 -82,31 -125,42 -102,28 -326,50 -411,-22 -32,-28 -44,-74 -45,-129 55,0 80,9 131,8 108,-2 269,-14 363,-52 337,-134 408,-518 255,-706 -159,-196 -752,-245 -1005,160 -56,89 -98,207 -121,323 -23,119 -45,266 -45,405z"/>
 </g>
</svg>
